<svg width="400" height="400" fill="none" xmlns="http://www.w3.org/2000/svg"><g clip-path="url(#a)"><path d="M200 400c110.457 0 200-89.543 200-200S310.457 0 200 0 0 89.543 0 200s89.543 200 200 200Z" fill="#fff"/><path d="M230.204 48.525c20.734 4.101 39.958 12.36 56.791 23.867 11.648-7.206 27.142-5.753 37.252 4.358 10.168 10.167 11.592 25.803 4.215 37.509a153.47 153.47 0 0 1 23.298 57.018C365.089 174.439 375 186.4 375 200.698c0 14.382-10.054 26.43-23.525 29.477-4.102 20.734-12.361 39.959-23.867 56.791 7.205 11.648 5.753 27.142-4.358 37.253-10.167 10.167-25.803 11.592-37.509 4.215a153.45 153.45 0 0 1-57.019 23.297c-3.161 13.329-15.123 23.24-29.42 23.24-14.382 0-26.43-10.053-29.477-23.524-20.734-4.102-39.959-12.362-56.791-23.868-11.648 7.206-27.142 5.725-37.253-4.357-10.168-10.168-11.592-25.804-4.215-37.509a153.464 153.464 0 0 1-23.297-57.018C34.91 225.504 25 213.543 25 199.274c0-14.383 10.054-26.43 23.525-29.478 4.101-20.734 12.36-39.958 23.867-56.791-7.206-11.648-5.725-27.142 4.358-37.252 10.167-10.168 25.803-11.592 37.509-4.216a153.46 153.46 0 0 1 57.018-23.297C174.439 34.911 186.429 25 200.698 25c14.411 0 26.458 10.054 29.506 23.525Zm83.135 77.98c-10.737 3.959-23.268 1.652-31.87-6.977-8.686-8.687-10.994-21.361-6.863-32.155a134.788 134.788 0 0 0-46.396-19.51c-4.784 10.396-15.294 17.63-27.484 17.63-12.304 0-22.898-7.348-27.598-17.886a134.565 134.565 0 0 0-46.594 19.025c3.959 10.738 1.652 23.269-6.978 31.871-8.687 8.686-21.36 10.993-32.155 6.863a134.775 134.775 0 0 0-19.509 46.395c10.395 4.785 17.63 15.295 17.63 27.484 0 12.304-7.349 22.899-17.886 27.598a134.079 134.079 0 0 0 19.053 46.595c10.738-3.959 23.269-1.652 31.87 6.977 8.687 8.687 10.994 21.361 6.864 32.155a134.75 134.75 0 0 0 46.395 19.509c4.785-10.395 15.295-17.629 27.484-17.629 12.303 0 22.899 7.348 27.598 17.886a134.093 134.093 0 0 0 46.595-19.054c-3.959-10.737-1.652-23.269 6.977-31.87 8.687-8.686 21.361-10.993 32.155-6.864a134.769 134.769 0 0 0 19.509-46.395c-10.395-4.785-17.629-15.294-17.629-27.484 0-12.303 7.348-22.899 17.886-27.597a134.174 134.174 0 0 0-19.054-46.567Z" fill="#005E7C"/><path d="m133.069 153.244 64.893-36.463.801-.321a6.527 6.527 0 0 1 2.08-.321 6.694 6.694 0 0 1 1.793.225c.511.105.993.325 1.409.642l64.22 37.298a6.671 6.671 0 0 1 3.554 3.212 8.537 8.537 0 0 1 .96 4.177v75.205a7.275 7.275 0 0 1-1.136 3.468 7.23 7.23 0 0 1-2.674 2.475l-64.508 37.619a6.39 6.39 0 0 1-1.473.578 6.858 6.858 0 0 1-3.938 0 6.993 6.993 0 0 1-1.793-.803l-65.981-38.551a7.245 7.245 0 0 1-2.608-2.43 7.285 7.285 0 0 1-1.138-3.384v-75.623a7.275 7.275 0 0 1 1.53-4.434 7.232 7.232 0 0 1 3.913-2.569h.096Zm60.827 108.615v-58.853l-51.959-31.001v59.239l51.895 30.615h.064Zm64.572-88.955-50.23 30.134v58.886l50.23-29.716v-59.304Zm-57.625-41.538-49.013 29.363 49.237 29.748 47.766-28.913-47.99-30.198Z" fill="#005E7C"/></g><defs><clipPath id="a"><path fill="#fff" d="M0 0h400v400H0z"/></clipPath></defs></svg>